<svg width="18" height="18" viewBox="0 0 18 18" fill="none" xmlns="http://www.w3.org/2000/svg">
<path d="M0.750063 7.49912C0.551134 7.49912 0.360352 7.4201 0.219688 7.27944C0.0790244 7.13877 0 6.94799 0 6.74906V0.750062C0 0.551134 0.0790244 0.360352 0.219688 0.219688C0.360352 0.0790244 0.551134 0 0.750063 0H6.75056C6.94949 0 7.14027 0.0790244 7.28094 0.219688C7.4216 0.360352 7.50063 0.551134 7.50063 0.750062V6.74906C7.50063 6.94799 7.4216 7.13877 7.28094 7.27944C7.14027 7.4201 6.94949 7.49912 6.75056 7.49912H0.750063ZM11.2509 7.49912C11.052 7.49912 10.8612 7.4201 10.7206 7.27944C10.5799 7.13877 10.5009 6.94799 10.5009 6.74906V0.750062C10.5009 0.551134 10.5799 0.360352 10.7206 0.219688C10.8612 0.0790244 11.052 0 11.2509 0H17.2499C17.4489 0 17.6396 0.0790244 17.7803 0.219688C17.921 0.360352 18 0.551134 18 0.750062V6.74906C18 6.94799 17.921 7.13877 17.7803 7.27944C17.6396 7.4201 17.4489 7.49912 17.2499 7.49912H11.2509ZM0.750063 18C0.551134 18 0.360352 17.921 0.219688 17.7803C0.0790244 17.6396 0 17.4489 0 17.2499V11.2494C0 11.0505 0.0790244 10.8597 0.219688 10.7191C0.360352 10.5784 0.551134 10.4994 0.750063 10.4994H6.75056C6.94949 10.4994 7.14027 10.5784 7.28094 10.7191C7.4216 10.8597 7.50063 11.0505 7.50063 11.2494V17.2499C7.50063 17.4489 7.4216 17.6396 7.28094 17.7803C7.14027 17.921 6.94949 18 6.75056 18H0.750063ZM11.2509 18C11.052 18 10.8612 17.921 10.7206 17.7803C10.5799 17.6396 10.5009 17.4489 10.5009 17.2499V11.2494C10.5009 11.0505 10.5799 10.8597 10.7206 10.7191C10.8612 10.5784 11.052 10.4994 11.2509 10.4994H17.2499C17.4489 10.4994 17.6396 10.5784 17.7803 10.7191C17.921 10.8597 18 11.0505 18 11.2494V17.2499C18 17.4489 17.921 17.6396 17.7803 17.7803C17.6396 17.921 17.4489 18 17.2499 18H11.2509Z" fill="white"/>
</svg>
