<svg width="39" height="40" viewBox="0 0 39 40" fill="none" xmlns="http://www.w3.org/2000/svg">
<path d="M19.5 3.33325C10.53 3.33325 3.25 10.7999 3.25 19.9999C3.25 29.1999 10.53 36.6666 19.5 36.6666C28.47 36.6666 35.75 29.1999 35.75 19.9999C35.75 10.7999 28.47 3.33325 19.5 3.33325ZM27.04 14.6666C26.7962 17.2999 25.74 23.6999 25.2037 26.6499C24.9762 27.8999 24.5212 28.3166 24.0987 28.3666C23.1562 28.4499 22.4412 27.7333 21.5312 27.1166C20.1012 26.1499 19.2887 25.5499 17.9075 24.6166C16.2987 23.5333 17.3387 22.9333 18.265 21.9666C18.5087 21.7166 22.6687 17.8333 22.75 17.4833C22.7613 17.4302 22.7598 17.3752 22.7456 17.3229C22.7315 17.2706 22.7051 17.2227 22.6687 17.1833C22.5712 17.0999 22.4412 17.1333 22.3275 17.1499C22.1812 17.1833 19.9062 18.7333 15.47 21.7999C14.82 22.2499 14.235 22.4833 13.715 22.4666C13.13 22.4499 12.025 22.1333 11.1962 21.8499C10.1725 21.5166 9.37625 21.3333 9.44125 20.7499C9.47375 20.4499 9.88 20.1499 10.6437 19.8333C15.3887 17.7166 18.5412 16.3166 20.1175 15.6499C24.635 13.7166 25.5612 13.3833 26.1787 13.3833C26.3087 13.3833 26.6175 13.4166 26.8125 13.5833C26.975 13.7166 27.0237 13.8999 27.04 14.0333C27.0237 14.1333 27.0562 14.4333 27.04 14.6666Z" fill="black"/>
</svg>
