<svg width="529" height="27" viewBox="0 0 529 27" fill="none" xmlns="http://www.w3.org/2000/svg">
<path d="M15.5254 18V11.328H12.0094V9.072H21.8974V11.328H18.3814V18H15.5254ZM28.2936 11.844H31.7736C33.2056 11.844 34.2336 12.124 34.8576 12.684C35.4016 13.172 35.6736 13.892 35.6736 14.844V14.976C35.6736 15.912 35.3976 16.628 34.8456 17.124C34.1976 17.708 33.1736 18 31.7736 18H25.4256V9.072H28.2936V11.844ZM31.5336 15.876C31.9096 15.876 32.1936 15.796 32.3856 15.636C32.5856 15.468 32.6856 15.24 32.6856 14.952V14.868C32.6856 14.588 32.5856 14.368 32.3856 14.208C32.1936 14.048 31.9096 13.968 31.5336 13.968H28.2936V15.876H31.5336ZM40.0176 9.072V18H37.1496V9.072H40.0176ZM49.5156 18V9.072H53.4036L56.0316 14.628L58.7196 9.072H62.4156V18H59.6076V12.3L56.9316 18H54.9396L52.2756 12.3V18H49.5156ZM72.1473 8.928C73.5393 8.928 74.6833 9.168 75.5793 9.648C76.3233 10.056 76.8833 10.62 77.2593 11.34C77.5553 11.932 77.7033 12.596 77.7033 13.332V13.692C77.7033 14.212 77.6153 14.728 77.4393 15.24C77.2713 15.752 76.9953 16.212 76.6113 16.62C75.6513 17.636 74.1633 18.144 72.1473 18.144H71.6073C70.2153 18.144 69.0753 17.896 68.1873 17.4C67.4193 16.976 66.8593 16.4 66.5073 15.672C66.2033 15.072 66.0513 14.412 66.0513 13.692V13.332C66.0513 12.588 66.2033 11.924 66.5073 11.34C66.8673 10.62 67.4273 10.056 68.1873 9.648C69.0673 9.168 70.2073 8.928 71.6073 8.928H72.1473ZM74.7153 13.428C74.7153 12.804 74.5433 12.304 74.1993 11.928C73.7273 11.416 72.9553 11.16 71.8833 11.16C70.8273 11.16 70.0553 11.416 69.5673 11.928C69.2153 12.304 69.0393 12.804 69.0393 13.428V13.584C69.0393 14.2 69.2233 14.704 69.5913 15.096C70.0793 15.624 70.8433 15.888 71.8833 15.888C72.9553 15.888 73.7273 15.624 74.1993 15.096C74.5433 14.712 74.7153 14.208 74.7153 13.584V13.428ZM86.5397 18V14.112L83.0237 18H79.5077L83.8757 13.236L79.6037 9.072H83.0837L86.5397 12.432V9.072H89.4077V12.432L92.8517 9.072H96.2717L92.1077 13.14L96.5237 18H92.9237L89.4077 14.124V18H86.5397ZM99.385 9.072H107.941V11.124H102.229V12.42H107.761V14.544H102.229V15.924H108.013V18H99.385V9.072ZM111.828 18V9.072H114.696V15.876H117.384V9.072H120.252V15.876H122.94V9.072H125.808V18H111.828ZM132.706 11.844H136.186C137.618 11.844 138.646 12.124 139.27 12.684C139.814 13.172 140.086 13.892 140.086 14.844V14.976C140.086 15.912 139.81 16.628 139.258 17.124C138.61 17.708 137.586 18 136.186 18H129.838V9.072H132.706V11.844ZM135.946 15.876C136.322 15.876 136.606 15.796 136.798 15.636C136.998 15.468 137.098 15.24 137.098 14.952V14.868C137.098 14.588 136.998 14.368 136.798 14.208C136.606 14.048 136.322 13.968 135.946 13.968H132.706V15.876H135.946ZM148.948 9.072H155.944C157.12 9.072 157.984 9.288 158.536 9.72C158.984 10.08 159.208 10.564 159.208 11.172V11.28C159.208 11.808 159.012 12.24 158.62 12.576C158.452 12.712 158.272 12.824 158.08 12.912C157.888 12.992 157.7 13.044 157.516 13.068C158.116 13.172 158.6 13.372 158.968 13.668C159.44 14.06 159.676 14.596 159.676 15.276V15.396C159.676 16.164 159.42 16.764 158.908 17.196C158.292 17.732 157.312 18 155.968 18H148.948V9.072ZM151.816 11.052V12.492H155.296C155.92 12.492 156.232 12.256 156.232 11.784V11.76C156.232 11.536 156.16 11.364 156.016 11.244C155.88 11.116 155.64 11.052 155.296 11.052H151.816ZM151.816 14.34V15.924H155.524C155.916 15.924 156.2 15.836 156.376 15.66C156.512 15.532 156.58 15.352 156.58 15.12V15.072C156.58 14.84 156.512 14.668 156.376 14.556C156.208 14.412 155.924 14.34 155.524 14.34H151.816ZM168.199 18.144C166.839 18.144 165.731 17.892 164.875 17.388C164.131 16.948 163.591 16.364 163.255 15.636C162.967 15.028 162.823 14.38 162.823 13.692V13.332C162.823 12.644 162.967 11.996 163.255 11.388C163.607 10.644 164.143 10.068 164.863 9.66C165.727 9.172 166.839 8.928 168.199 8.928H168.751C170.671 8.928 172.079 9.328 172.975 10.128C173.343 10.456 173.607 10.828 173.767 11.244C173.935 11.66 174.019 12.092 174.019 12.54V12.6H171.067C171.043 12.496 171.011 12.388 170.971 12.276C170.915 12.108 170.791 11.944 170.599 11.784C170.415 11.624 170.163 11.484 169.843 11.364C169.515 11.236 169.059 11.172 168.475 11.172C167.507 11.172 166.799 11.416 166.351 11.904C165.991 12.296 165.811 12.8 165.811 13.416V13.572C165.811 13.836 165.855 14.1 165.943 14.364C166.031 14.628 166.171 14.868 166.363 15.084C166.835 15.612 167.543 15.876 168.487 15.876C169.471 15.876 170.183 15.664 170.623 15.24C170.791 15.088 170.907 14.924 170.971 14.748C171.011 14.636 171.043 14.528 171.067 14.424H174.019V14.496C174.019 15.072 173.879 15.612 173.599 16.116C173.271 16.708 172.739 17.18 172.003 17.532C171.147 17.94 170.063 18.144 168.751 18.144H168.199ZM177.632 9.072H186.188V11.124H180.476V12.42H186.008V14.544H180.476V15.924H186.26V18H177.632V9.072ZM189.787 9.072H193.111L192.115 14.928H190.795L189.787 9.072ZM192.931 15.648V18H189.991V15.648H192.931ZM207.321 18.144C205.961 18.144 204.853 17.892 203.997 17.388C203.253 16.948 202.713 16.364 202.377 15.636C202.089 15.028 201.945 14.38 201.945 13.692V13.332C201.945 12.644 202.089 11.996 202.377 11.388C202.729 10.644 203.265 10.068 203.985 9.66C204.849 9.172 205.961 8.928 207.321 8.928H207.873C209.793 8.928 211.201 9.328 212.097 10.128C212.465 10.456 212.729 10.828 212.889 11.244C213.057 11.66 213.141 12.092 213.141 12.54V12.6H210.189C210.165 12.496 210.133 12.388 210.093 12.276C210.037 12.108 209.913 11.944 209.721 11.784C209.537 11.624 209.285 11.484 208.965 11.364C208.637 11.236 208.181 11.172 207.597 11.172C206.629 11.172 205.921 11.416 205.473 11.904C205.113 12.296 204.933 12.8 204.933 13.416V13.572C204.933 13.836 204.977 14.1 205.065 14.364C205.153 14.628 205.293 14.868 205.485 15.084C205.957 15.612 206.665 15.876 207.609 15.876C208.593 15.876 209.305 15.664 209.745 15.24C209.913 15.088 210.029 14.924 210.093 14.748C210.133 14.636 210.165 14.528 210.189 14.424H213.141V14.496C213.141 15.072 213.001 15.612 212.721 16.116C212.393 16.708 211.861 17.18 211.125 17.532C210.269 17.94 209.185 18.144 207.873 18.144H207.321ZM219.648 18V11.328H216.132V9.072H226.02V11.328H222.504V18H219.648ZM236.472 18L235.776 16.452H231.06L230.376 18H227.508L231.564 9.072H235.344L239.532 18H236.472ZM234.9 14.484L233.4 11.148L231.936 14.484H234.9ZM242.542 18V9.072H245.41V12.3H250.15V9.072H253.018V18H250.15V14.52H245.41V18H242.542ZM259.916 11.844H263.396C264.828 11.844 265.856 12.124 266.48 12.684C267.024 13.172 267.296 13.892 267.296 14.844V14.976C267.296 15.912 267.02 16.628 266.468 17.124C265.82 17.708 264.796 18 263.396 18H257.048V9.072H259.916V11.844ZM263.156 15.876C263.532 15.876 263.816 15.796 264.008 15.636C264.208 15.468 264.308 15.24 264.308 14.952V14.868C264.308 14.588 264.208 14.368 264.008 14.208C263.816 14.048 263.532 13.968 263.156 13.968H259.916V15.876H263.156ZM283.178 11.196H279.734C279.734 12.452 279.698 13.496 279.626 14.328C279.554 15.16 279.434 15.808 279.266 16.272C279.058 16.816 278.762 17.224 278.378 17.496C277.898 17.832 277.238 18 276.398 18H275.438V15.672H275.582C275.886 15.672 276.122 15.612 276.29 15.492C276.458 15.372 276.594 15.204 276.698 14.988C276.77 14.836 276.822 14.648 276.854 14.424C276.894 14.2 276.926 13.88 276.95 13.464C276.982 12.704 276.998 11.24 276.998 9.072H286.046V18H283.178V11.196ZM296.534 16.02C296.326 16.38 296.126 16.68 295.934 16.92C295.742 17.152 295.526 17.344 295.286 17.496C295.03 17.664 294.738 17.792 294.41 17.88C294.082 17.96 293.694 18 293.246 18H291.086V15.804H292.67C292.83 15.804 292.91 15.74 292.91 15.612V15.6C292.91 15.536 292.894 15.472 292.862 15.408C292.838 15.344 292.794 15.26 292.73 15.156L288.926 9.072H292.178L294.926 13.632L297.506 9.072H300.626L296.534 16.02ZM310.37 14.76C309.49 14.872 308.71 14.928 308.03 14.928C307.19 14.928 306.47 14.876 305.87 14.772C305.278 14.668 304.782 14.488 304.382 14.232C303.95 13.968 303.626 13.608 303.41 13.152C303.202 12.696 303.098 12.116 303.098 11.412V9.072H305.966V10.992C305.966 11.352 306.014 11.644 306.11 11.868C306.206 12.092 306.358 12.272 306.566 12.408C306.766 12.536 307.026 12.628 307.346 12.684C307.666 12.74 308.066 12.768 308.546 12.768C308.778 12.768 309.118 12.752 309.566 12.72C309.966 12.688 310.234 12.66 310.37 12.636V9.072H313.226V18H310.37V14.76ZM317.261 18V9.072H320.129V15.876H322.817V9.072H325.685V15.876H328.373V9.072H331.241V18H317.261ZM335.271 9.072H343.827V11.124H338.115V12.42H343.647V14.544H338.115V15.924H343.899V18H335.271V9.072ZM355.407 18V12.312L350.583 18H347.715V9.072H350.583V14.76L355.407 9.072H358.263V18H355.407ZM352.815 8.448C351.879 8.448 351.203 8.192 350.787 7.68C350.627 7.488 350.511 7.28 350.439 7.056C350.375 6.824 350.343 6.604 350.343 6.396V6.372H352.251C352.267 6.54 352.319 6.676 352.407 6.78C352.519 6.948 352.711 7.032 352.983 7.032H352.995C353.251 7.032 353.435 6.948 353.547 6.78C353.627 6.676 353.675 6.54 353.691 6.372H355.587V6.396C355.587 6.596 355.547 6.812 355.467 7.044C355.387 7.276 355.259 7.488 355.083 7.68C354.643 8.192 353.991 8.448 353.127 8.448H352.815ZM367.762 9.072H374.758C375.934 9.072 376.798 9.288 377.35 9.72C377.798 10.08 378.022 10.564 378.022 11.172V11.28C378.022 11.808 377.826 12.24 377.434 12.576C377.266 12.712 377.086 12.824 376.894 12.912C376.702 12.992 376.514 13.044 376.33 13.068C376.93 13.172 377.414 13.372 377.782 13.668C378.254 14.06 378.49 14.596 378.49 15.276V15.396C378.49 16.164 378.234 16.764 377.722 17.196C377.106 17.732 376.126 18 374.782 18H367.762V9.072ZM370.63 11.052V12.492H374.11C374.734 12.492 375.046 12.256 375.046 11.784V11.76C375.046 11.536 374.974 11.364 374.83 11.244C374.694 11.116 374.454 11.052 374.11 11.052H370.63ZM370.63 14.34V15.924H374.338C374.73 15.924 375.014 15.836 375.19 15.66C375.326 15.532 375.394 15.352 375.394 15.12V15.072C375.394 14.84 375.326 14.668 375.19 14.556C375.022 14.412 374.738 14.34 374.338 14.34H370.63ZM382.033 9.072H390.589V11.124H384.877V12.42H390.409V14.544H384.877V15.924H390.661V18H382.033V9.072ZM397.345 15.24V18H394.477V9.072H400.765C402.213 9.072 403.257 9.352 403.897 9.912C404.441 10.392 404.713 11.108 404.713 12.06V12.204C404.713 13.164 404.437 13.888 403.885 14.376C403.229 14.952 402.189 15.24 400.765 15.24H397.345ZM397.345 13.104H400.525C401.333 13.104 401.737 12.792 401.737 12.168V12.132C401.737 11.524 401.333 11.22 400.525 11.22H397.345V13.104ZM413.26 18.144C411.9 18.144 410.792 17.892 409.936 17.388C409.192 16.948 408.652 16.364 408.316 15.636C408.028 15.028 407.884 14.38 407.884 13.692V13.332C407.884 12.644 408.028 11.996 408.316 11.388C408.668 10.644 409.204 10.068 409.924 9.66C410.788 9.172 411.9 8.928 413.26 8.928H413.812C415.732 8.928 417.14 9.328 418.036 10.128C418.404 10.456 418.668 10.828 418.828 11.244C418.996 11.66 419.08 12.092 419.08 12.54V12.6H416.128C416.104 12.496 416.072 12.388 416.032 12.276C415.976 12.108 415.852 11.944 415.66 11.784C415.476 11.624 415.224 11.484 414.904 11.364C414.576 11.236 414.12 11.172 413.536 11.172C412.568 11.172 411.86 11.416 411.412 11.904C411.052 12.296 410.872 12.8 410.872 13.416V13.572C410.872 13.836 410.916 14.1 411.004 14.364C411.092 14.628 411.232 14.868 411.424 15.084C411.896 15.612 412.604 15.876 413.548 15.876C414.532 15.876 415.244 15.664 415.684 15.24C415.852 15.088 415.968 14.924 416.032 14.748C416.072 14.636 416.104 14.528 416.128 14.424H419.08V14.496C419.08 15.072 418.94 15.612 418.66 16.116C418.332 16.708 417.8 17.18 417.064 17.532C416.208 17.94 415.124 18.144 413.812 18.144H413.26ZM430.384 18V12.312L425.56 18H422.692V9.072H425.56V14.76L430.384 9.072H433.24V18H430.384ZM437.268 9.072H445.824V11.124H440.112V12.42H445.644V14.544H440.112V15.924H445.896V18H437.268V9.072ZM457.403 18V12.312L452.579 18H449.711V9.072H452.579V14.76L457.403 9.072H460.259V18H457.403ZM454.811 8.448C453.875 8.448 453.199 8.192 452.783 7.68C452.623 7.488 452.507 7.28 452.435 7.056C452.371 6.824 452.339 6.604 452.339 6.396V6.372H454.247C454.263 6.54 454.315 6.676 454.403 6.78C454.515 6.948 454.707 7.032 454.979 7.032H454.991C455.247 7.032 455.431 6.948 455.543 6.78C455.623 6.676 455.671 6.54 455.687 6.372H457.583V6.396C457.583 6.596 457.543 6.812 457.463 7.044C457.383 7.276 457.255 7.488 457.079 7.68C456.639 8.192 455.987 8.448 455.123 8.448H454.811ZM474.738 18.144C473.378 18.144 472.27 17.892 471.414 17.388C470.67 16.948 470.13 16.364 469.794 15.636C469.506 15.028 469.362 14.38 469.362 13.692V13.332C469.362 12.644 469.506 11.996 469.794 11.388C470.146 10.644 470.682 10.068 471.402 9.66C472.266 9.172 473.378 8.928 474.738 8.928H475.29C477.21 8.928 478.618 9.328 479.514 10.128C479.882 10.456 480.146 10.828 480.306 11.244C480.474 11.66 480.558 12.092 480.558 12.54V12.6H477.606C477.582 12.496 477.55 12.388 477.51 12.276C477.454 12.108 477.33 11.944 477.138 11.784C476.954 11.624 476.702 11.484 476.382 11.364C476.054 11.236 475.598 11.172 475.014 11.172C474.046 11.172 473.338 11.416 472.89 11.904C472.53 12.296 472.35 12.8 472.35 13.416V13.572C472.35 13.836 472.394 14.1 472.482 14.364C472.57 14.628 472.71 14.868 472.902 15.084C473.374 15.612 474.082 15.876 475.026 15.876C476.01 15.876 476.722 15.664 477.162 15.24C477.33 15.088 477.446 14.924 477.51 14.748C477.55 14.636 477.582 14.528 477.606 14.424H480.558V14.496C480.558 15.072 480.418 15.612 480.138 16.116C479.81 16.708 479.278 17.18 478.542 17.532C477.686 17.94 476.602 18.144 475.29 18.144H474.738ZM484.171 9.072H492.727V11.124H487.015V12.42H492.547V14.544H487.015V15.924H492.799V18H484.171V9.072ZM496.614 9.072H506.25V11.136H499.482V12.192H503.262C504.542 12.192 505.49 12.46 506.106 12.996C506.634 13.468 506.898 14.14 506.898 15.012V15.156C506.898 16.012 506.63 16.684 506.094 17.172C505.478 17.724 504.534 18 503.262 18H496.614V9.072ZM502.77 15.936C503.146 15.936 503.43 15.864 503.622 15.72C503.814 15.576 503.91 15.376 503.91 15.12V15.048C503.91 14.8 503.814 14.608 503.622 14.472C503.43 14.328 503.146 14.256 502.77 14.256H499.482V15.936H502.77ZM515.95 15.084L513.118 18H509.686L512.842 14.76C511.97 14.632 511.302 14.344 510.838 13.896C510.382 13.44 510.154 12.84 510.154 12.096V11.976C510.154 11.56 510.234 11.176 510.394 10.824C510.554 10.472 510.79 10.164 511.102 9.9C511.766 9.348 512.702 9.072 513.91 9.072H520.69V18H517.822V15.084H515.95ZM517.822 11.208H514.282C513.53 11.208 513.154 11.488 513.154 12.048V12.072C513.154 12.36 513.25 12.576 513.442 12.72C513.642 12.864 513.922 12.936 514.282 12.936H517.822V11.208ZM524.436 9.072H527.76L526.764 14.928H525.444L524.436 9.072ZM527.58 15.648V18H524.64V15.648H527.58Z" fill="black"></path>
</svg>
