<svg width="529" height="27" fill="none" xmlns="http://www.w3.org/2000/svg"><path d="M15.525 18v-6.672H12.01V9.072h9.888v2.256h-3.516V18h-2.856Zm12.769-6.156h3.48c1.432 0 2.46.28 3.084.84.544.488.816 1.208.816 2.16v.132c0 .936-.276 1.652-.828 2.148-.648.584-1.672.876-3.072.876h-6.348V9.072h2.868v2.772Zm3.24 4.032c.376 0 .66-.08.852-.24.2-.168.3-.396.3-.684v-.084c0-.28-.1-.5-.3-.66-.192-.16-.476-.24-.852-.24h-3.24v1.908h3.24Zm8.484-6.804V18H37.15V9.072h2.868ZM49.516 18V9.072h3.888l2.628 5.556 2.688-5.556h3.696V18h-2.808v-5.7L56.932 18H54.94l-2.664-5.7V18h-2.76Zm22.631-9.072c1.392 0 2.536.24 3.432.72a4.03 4.03 0 0 1 1.68 1.692c.296.592.444 1.256.444 1.992v.36c0 .52-.088 1.036-.264 1.548a3.66 3.66 0 0 1-.828 1.38c-.96 1.016-2.448 1.524-4.464 1.524h-.54c-1.392 0-2.532-.248-3.42-.744-.768-.424-1.328-1-1.68-1.728a4.317 4.317 0 0 1-.456-1.98v-.36c0-.744.152-1.408.456-1.992.36-.72.92-1.284 1.68-1.692.88-.48 2.02-.72 3.42-.72h.54Zm2.568 4.5c0-.624-.172-1.124-.516-1.5-.472-.512-1.244-.768-2.316-.768-1.056 0-1.828.256-2.316.768-.352.376-.528.876-.528 1.5v.156c0 .616.184 1.12.552 1.512.488.528 1.252.792 2.292.792 1.072 0 1.844-.264 2.316-.792.344-.384.516-.888.516-1.512v-.156ZM86.54 18v-3.888L83.024 18h-3.516l4.368-4.764-4.272-4.164h3.48l3.456 3.36v-3.36h2.868v3.36l3.444-3.36h3.42l-4.164 4.068L96.524 18h-3.6l-3.516-3.876V18H86.54Zm12.845-8.928h8.556v2.052h-5.712v1.296h5.532v2.124h-5.532v1.38h5.784V18h-8.628V9.072ZM111.828 18V9.072h2.868v6.804h2.688V9.072h2.868v6.804h2.688V9.072h2.868V18h-13.98Zm20.878-6.156h3.48c1.432 0 2.46.28 3.084.84.544.488.816 1.208.816 2.16v.132c0 .936-.276 1.652-.828 2.148-.648.584-1.672.876-3.072.876h-6.348V9.072h2.868v2.772Zm3.24 4.032c.376 0 .66-.08.852-.24.2-.168.3-.396.3-.684v-.084c0-.28-.1-.5-.3-.66-.192-.16-.476-.24-.852-.24h-3.24v1.908h3.24Zm13.002-6.804h6.996c1.176 0 2.04.216 2.592.648.448.36.672.844.672 1.452v.108c0 .528-.196.96-.588 1.296a2.533 2.533 0 0 1-.54.336 2.21 2.21 0 0 1-.564.156c.6.104 1.084.304 1.452.6.472.392.708.928.708 1.608v.12c0 .768-.256 1.368-.768 1.8-.616.536-1.596.804-2.94.804h-7.02V9.072Zm2.868 1.98v1.44h3.48c.624 0 .936-.236.936-.708v-.024c0-.224-.072-.396-.216-.516-.136-.128-.376-.192-.72-.192h-3.48Zm0 3.288v1.584h3.708c.392 0 .676-.088.852-.264.136-.128.204-.308.204-.54v-.048c0-.232-.068-.404-.204-.516-.168-.144-.452-.216-.852-.216h-3.708Zm16.383 3.804c-1.36 0-2.468-.252-3.324-.756-.744-.44-1.284-1.024-1.62-1.752a4.484 4.484 0 0 1-.432-1.944v-.36c0-.688.144-1.336.432-1.944a3.82 3.82 0 0 1 1.608-1.728c.864-.488 1.976-.732 3.336-.732h.552c1.92 0 3.328.4 4.224 1.2.368.328.632.7.792 1.116.168.416.252.848.252 1.296v.06h-2.952a2.913 2.913 0 0 0-.096-.324c-.056-.168-.18-.332-.372-.492-.184-.16-.436-.3-.756-.42-.328-.128-.784-.192-1.368-.192-.968 0-1.676.244-2.124.732-.36.392-.54.896-.54 1.512v.156c0 .264.044.528.132.792.088.264.228.504.42.72.472.528 1.18.792 2.124.792.984 0 1.696-.212 2.136-.636.168-.152.284-.316.348-.492.04-.112.072-.22.096-.324h2.952v.072c0 .576-.14 1.116-.42 1.62-.328.592-.86 1.064-1.596 1.416-.856.408-1.94.612-3.252.612h-.552Zm9.433-9.072h8.556v2.052h-5.712v1.296h5.532v2.124h-5.532v1.38h5.784V18h-8.628V9.072Zm12.155 0h3.324l-.996 5.856h-1.32l-1.008-5.856Zm3.144 6.576V18h-2.94v-2.352h2.94Zm14.39 2.496c-1.36 0-2.468-.252-3.324-.756-.744-.44-1.284-1.024-1.62-1.752a4.484 4.484 0 0 1-.432-1.944v-.36c0-.688.144-1.336.432-1.944a3.82 3.82 0 0 1 1.608-1.728c.864-.488 1.976-.732 3.336-.732h.552c1.92 0 3.328.4 4.224 1.2.368.328.632.7.792 1.116.168.416.252.848.252 1.296v.06h-2.952a2.913 2.913 0 0 0-.096-.324c-.056-.168-.18-.332-.372-.492-.184-.16-.436-.3-.756-.42-.328-.128-.784-.192-1.368-.192-.968 0-1.676.244-2.124.732-.36.392-.54.896-.54 1.512v.156c0 .264.044.528.132.792.088.264.228.504.42.72.472.528 1.18.792 2.124.792.984 0 1.696-.212 2.136-.636.168-.152.284-.316.348-.492.04-.112.072-.22.096-.324h2.952v.072c0 .576-.14 1.116-.42 1.62-.328.592-.86 1.064-1.596 1.416-.856.408-1.94.612-3.252.612h-.552ZM219.648 18v-6.672h-3.516V9.072h9.888v2.256h-3.516V18h-2.856Zm16.824 0-.696-1.548h-4.716L230.376 18h-2.868l4.056-8.928h3.78L239.532 18h-3.06Zm-1.572-3.516-1.5-3.336-1.464 3.336h2.964ZM242.542 18V9.072h2.868V12.3h4.74V9.072h2.868V18h-2.868v-3.48h-4.74V18h-2.868Zm17.374-6.156h3.48c1.432 0 2.46.28 3.084.84.544.488.816 1.208.816 2.16v.132c0 .936-.276 1.652-.828 2.148-.648.584-1.672.876-3.072.876h-6.348V9.072h2.868v2.772Zm3.24 4.032c.376 0 .66-.08.852-.24.2-.168.3-.396.3-.684v-.084c0-.28-.1-.5-.3-.66-.192-.16-.476-.24-.852-.24h-3.24v1.908h3.24Zm20.022-4.68h-3.444c0 1.256-.036 2.3-.108 3.132-.072.832-.192 1.48-.36 1.944-.208.544-.504.952-.888 1.224-.48.336-1.14.504-1.98.504h-.96v-2.328h.144c.304 0 .54-.06.708-.18.168-.12.304-.288.408-.504.072-.152.124-.34.156-.564.04-.224.072-.544.096-.96.032-.76.048-2.224.048-4.392h9.048V18h-2.868v-6.804Zm13.356 4.824c-.208.36-.408.66-.6.9a2.75 2.75 0 0 1-.648.576 3.002 3.002 0 0 1-.876.384 4.96 4.96 0 0 1-1.164.12h-2.16v-2.196h1.584c.16 0 .24-.064.24-.192V15.6a.426.426 0 0 0-.048-.192 1.57 1.57 0 0 0-.132-.252l-3.804-6.084h3.252l2.748 4.56 2.58-4.56h3.12l-4.092 6.948Zm13.836-1.26c-.88.112-1.66.168-2.34.168-.84 0-1.56-.052-2.16-.156-.592-.104-1.088-.284-1.488-.54a2.49 2.49 0 0 1-.972-1.08c-.208-.456-.312-1.036-.312-1.74v-2.34h2.868v1.92c0 .36.048.652.144.876.096.224.248.404.456.54.2.128.46.22.78.276.32.056.72.084 1.2.084.232 0 .572-.016 1.02-.048.4-.032.668-.06.804-.084V9.072h2.856V18h-2.856v-3.24Zm6.891 3.24V9.072h2.868v6.804h2.688V9.072h2.868v6.804h2.688V9.072h2.868V18h-13.98Zm18.01-8.928h8.556v2.052h-5.712v1.296h5.532v2.124h-5.532v1.38h5.784V18h-8.628V9.072ZM355.407 18v-5.688L350.583 18h-2.868V9.072h2.868v5.688l4.824-5.688h2.856V18h-2.856Zm-2.592-9.552c-.936 0-1.612-.256-2.028-.768-.16-.192-.276-.4-.348-.624a2.484 2.484 0 0 1-.096-.66v-.024h1.908a.72.72 0 0 0 .156.408c.112.168.304.252.576.252h.012c.256 0 .44-.084.552-.252a.776.776 0 0 0 .144-.408h1.896v.024c0 .2-.04.416-.12.648-.08.232-.208.444-.384.636-.44.512-1.092.768-1.956.768h-.312Zm14.947.624h6.996c1.176 0 2.04.216 2.592.648.448.36.672.844.672 1.452v.108c0 .528-.196.96-.588 1.296a2.533 2.533 0 0 1-.54.336 2.21 2.21 0 0 1-.564.156c.6.104 1.084.304 1.452.6.472.392.708.928.708 1.608v.12c0 .768-.256 1.368-.768 1.8-.616.536-1.596.804-2.94.804h-7.02V9.072Zm2.868 1.98v1.44h3.48c.624 0 .936-.236.936-.708v-.024c0-.224-.072-.396-.216-.516-.136-.128-.376-.192-.72-.192h-3.48Zm0 3.288v1.584h3.708c.392 0 .676-.088.852-.264.136-.128.204-.308.204-.54v-.048c0-.232-.068-.404-.204-.516-.168-.144-.452-.216-.852-.216h-3.708Zm11.403-5.268h8.556v2.052h-5.712v1.296h5.532v2.124h-5.532v1.38h5.784V18h-8.628V9.072Zm15.312 6.168V18h-2.868V9.072h6.288c1.448 0 2.492.28 3.132.84.544.48.816 1.196.816 2.148v.144c0 .96-.276 1.684-.828 2.172-.656.576-1.696.864-3.12.864h-3.42Zm0-2.136h3.18c.808 0 1.212-.312 1.212-.936v-.036c0-.608-.404-.912-1.212-.912h-3.18v1.884Zm15.915 5.04c-1.36 0-2.468-.252-3.324-.756-.744-.44-1.284-1.024-1.62-1.752a4.484 4.484 0 0 1-.432-1.944v-.36c0-.688.144-1.336.432-1.944a3.82 3.82 0 0 1 1.608-1.728c.864-.488 1.976-.732 3.336-.732h.552c1.92 0 3.328.4 4.224 1.2.368.328.632.7.792 1.116.168.416.252.848.252 1.296v.06h-2.952a2.913 2.913 0 0 0-.096-.324c-.056-.168-.18-.332-.372-.492-.184-.16-.436-.3-.756-.42-.328-.128-.784-.192-1.368-.192-.968 0-1.676.244-2.124.732-.36.392-.54.896-.54 1.512v.156c0 .264.044.528.132.792.088.264.228.504.42.72.472.528 1.18.792 2.124.792.984 0 1.696-.212 2.136-.636.168-.152.284-.316.348-.492.04-.112.072-.22.096-.324h2.952v.072c0 .576-.14 1.116-.42 1.62-.328.592-.86 1.064-1.596 1.416-.856.408-1.94.612-3.252.612h-.552ZM430.384 18v-5.688L425.56 18h-2.868V9.072h2.868v5.688l4.824-5.688h2.856V18h-2.856Zm6.884-8.928h8.556v2.052h-5.712v1.296h5.532v2.124h-5.532v1.38h5.784V18h-8.628V9.072ZM457.403 18v-5.688L452.579 18h-2.868V9.072h2.868v5.688l4.824-5.688h2.856V18h-2.856Zm-2.592-9.552c-.936 0-1.612-.256-2.028-.768-.16-.192-.276-.4-.348-.624a2.484 2.484 0 0 1-.096-.66v-.024h1.908a.72.72 0 0 0 .156.408c.112.168.304.252.576.252h.012c.256 0 .44-.084.552-.252a.776.776 0 0 0 .144-.408h1.896v.024c0 .2-.04.416-.12.648-.08.232-.208.444-.384.636-.44.512-1.092.768-1.956.768h-.312Zm19.927 9.696c-1.36 0-2.468-.252-3.324-.756-.744-.44-1.284-1.024-1.62-1.752a4.484 4.484 0 0 1-.432-1.944v-.36c0-.688.144-1.336.432-1.944a3.82 3.82 0 0 1 1.608-1.728c.864-.488 1.976-.732 3.336-.732h.552c1.92 0 3.328.4 4.224 1.2.368.328.632.7.792 1.116.168.416.252.848.252 1.296v.06h-2.952a2.913 2.913 0 0 0-.096-.324c-.056-.168-.18-.332-.372-.492-.184-.16-.436-.3-.756-.42-.328-.128-.784-.192-1.368-.192-.968 0-1.676.244-2.124.732-.36.392-.54.896-.54 1.512v.156c0 .264.044.528.132.792.088.264.228.504.42.72.472.528 1.18.792 2.124.792.984 0 1.696-.212 2.136-.636.168-.152.284-.316.348-.492.04-.112.072-.22.096-.324h2.952v.072c0 .576-.14 1.116-.42 1.62-.328.592-.86 1.064-1.596 1.416-.856.408-1.94.612-3.252.612h-.552Zm9.433-9.072h8.556v2.052h-5.712v1.296h5.532v2.124h-5.532v1.38h5.784V18h-8.628V9.072Zm12.443 0h9.636v2.064h-6.768v1.056h3.78c1.28 0 2.228.268 2.844.804.528.472.792 1.144.792 2.016v.144c0 .856-.268 1.528-.804 2.016-.616.552-1.56.828-2.832.828h-6.648V9.072Zm6.156 6.864c.376 0 .66-.072.852-.216a.708.708 0 0 0 .288-.6v-.072a.665.665 0 0 0-.288-.576c-.192-.144-.476-.216-.852-.216h-3.288v1.68h3.288Zm13.18-.852L513.118 18h-3.432l3.156-3.24c-.872-.128-1.54-.416-2.004-.864-.456-.456-.684-1.056-.684-1.8v-.12a2.625 2.625 0 0 1 .948-2.076c.664-.552 1.6-.828 2.808-.828h6.78V18h-2.868v-2.916h-1.872Zm1.872-3.876h-3.54c-.752 0-1.128.28-1.128.84v.024c0 .288.096.504.288.648.2.144.48.216.84.216h3.54v-1.728Zm6.614-2.136h3.324l-.996 5.856h-1.32l-1.008-5.856Zm3.144 6.576V18h-2.94v-2.352h2.94Z" fill="#000"/></svg>